<svg width="91" height="34" viewBox="0 0 91 34" fill="none" xmlns="http://www.w3.org/2000/svg">
<path d="M8.51881 33H0.262813V0.983997H8.51881V33ZM21.4784 24.984C22.3904 26.232 24.3104 27.048 25.8944 27.048C28.8224 27.048 31.0304 24.888 31.0304 21.384C31.0304 17.928 28.8224 15.768 25.8944 15.768C24.3104 15.768 22.3904 16.632 21.4784 17.88V24.984ZM21.4784 33H14.0864V0.983997H21.4784V12.552C23.3024 10.248 25.7984 9.24 28.3424 9.24C34.1504 9.24 38.5664 13.8 38.5664 21.384C38.5664 29.256 34.0544 33.576 28.3424 33.576C25.7504 33.576 23.3984 32.52 21.4784 30.312V33ZM53.5818 33.576C46.4298 33.576 40.9578 28.92 40.9578 21.384C40.9578 14.664 45.9978 9.24 53.2458 9.24C60.1098 9.24 65.1018 14.28 65.1018 22.152V23.832H48.5898C49.1178 25.896 51.0378 27.624 54.3978 27.624C56.0298 27.624 58.7178 26.904 60.0618 25.656L63.2778 30.504C60.9738 32.568 57.1338 33.576 53.5818 33.576ZM58.0458 18.792C57.8538 17.16 56.6538 15.192 53.2458 15.192C50.0298 15.192 48.7818 17.112 48.4938 18.792H58.0458ZM90.9187 33H82.8067L78.3907 25.992L73.8307 33H65.7667L73.6867 21.096L66.2467 9.816H74.3587L78.3427 16.104L82.2787 9.816H90.3907L82.9987 21.096L90.9187 33Z" fill="#1D1D1D"/>
</svg>
