<svg width="104" height="35" viewBox="0 0 104 35" fill="none" xmlns="http://www.w3.org/2000/svg">
<path d="M62.1192 0H59.7896V15.5896H62.1192V0Z" fill="#10BBB7"/>
<path d="M41.9536 15.5896H46.8104C47.7568 15.5896 48.2352 15.1112 48.2352 14.1648H48.2248V10.3064H45.9056V13.5824H42.8896V1.9968H45.9056V5.07521H48.2248V1.4352C48.2248 0.478401 47.7464 0 46.8 0H41.9432C41.028 0 40.56 0.478401 40.5704 1.4352V14.1648C40.5704 15.1112 41.028 15.5896 41.9536 15.5896Z" fill="#10BBB7"/>
<path d="M78.3539 10.5664V13.624H75.5043V10.452H73.1747V14.1648C73.1747 15.1112 73.6427 15.5896 74.5787 15.5896H79.2691C80.2155 15.5896 80.6835 15.1112 80.6835 14.1648V10.452C80.6835 9.92162 80.5171 9.50562 80.1739 9.18322L75.5043 4.78401V1.9656H78.3539V4.89841H80.6835V1.4144C80.6835 0.468001 80.2155 0 79.2691 0H74.5787C73.6427 0 73.1747 0.478401 73.1747 1.4352V4.89841C73.1747 5.40801 73.3411 5.82401 73.6843 6.14641L78.3539 10.5664Z" fill="#10BBB7"/>
<path d="M52.395 8.59042H55.5463V15.5896H57.8967V0H55.5463V6.42721H52.395V0H50.0654V15.5896H52.395V8.59042Z" fill="#10BBB7"/>
<path d="M83.8972 27.5185C83.8972 27.7889 83.9388 28.1633 84.0428 28.6417L80.3092 19.032H78.2708V34.6217H80.538V25.9377C80.538 25.6673 80.4964 25.2929 80.3924 24.8145L84.126 34.6217H86.1644V19.032H83.8972V27.5185Z" fill="#252A80"/>
<path d="M71.5108 19.0112L68.4948 34.58V34.6216H70.7932L71.2612 31.668H74.1836L74.6516 34.6216H76.9604L73.9652 19.0112H71.5108V19.0112ZM71.5732 29.6608L72.7172 22.6304L73.8508 29.6608H71.5732Z" fill="#252A80"/>
<path d="M67.1531 19.032H64.8235V34.6217H67.1531V19.032Z" fill="#252A80"/>
<path d="M99.8712 32.5625V27.6745H103.376V25.6465H99.8712V21.1016H103.938V19.032H97.5416V34.6217H104V32.5625H99.8712Z" fill="#252A80"/>
<path d="M94.2761 19.032H89.4193C88.4937 19.032 88.0361 19.5104 88.0361 20.4672V33.1969C88.0361 34.1433 88.4937 34.6217 89.4193 34.6217H94.2761C95.2225 34.6217 95.701 34.1433 95.701 33.1969V29.3385H93.3817V32.6145H90.3657V21.0288H93.3817V24.1073H95.701V20.4672C95.701 19.5104 95.2225 19.032 94.2761 19.032Z" fill="#252A80"/>
<path d="M43.0147 19.0112L39.9987 34.58V34.6216H42.2971L42.7651 31.668H45.6875L46.1555 34.6216H48.4643L45.4691 19.0112H43.0147V19.0112ZM43.0771 29.6608L44.2211 22.6304L45.3547 29.6608H43.0771Z" fill="#252A80"/>
<path d="M34.4865 19.3337C33.4673 19.3337 32.5833 20.0409 32.3441 21.0185H29.2969V18.5433H26.8217V17.0561H29.2969V11.1073H26.8217V9.60965H29.2969V7.13444H32.3441C32.4377 7.54004 32.6457 7.89364 32.9265 8.17444C33.3217 8.56964 33.8729 8.81925 34.4761 8.81925C35.0793 8.81925 35.6305 8.56964 36.0257 8.17444C36.4209 7.77924 36.6705 7.22804 36.6705 6.62484C36.6705 5.40804 35.6825 4.43044 34.4761 4.43044C33.4569 4.43044 32.5729 5.13764 32.3337 6.11524H29.2865V3.64003H26.8113V0.780029H9.85922V3.64003H7.38401V9.60965H9.85922V11.0968H7.38401V13.5721H4.33681C4.09761 12.5841 3.21361 11.8873 2.1944 11.8873C0.988002 11.8769 0 12.8649 0 14.0817C0 14.6849 0.2496 15.2361 0.644801 15.6313C1.04 16.0265 1.5912 16.2761 2.1944 16.2761C2.79761 16.2761 3.34881 16.0265 3.74401 15.6313C4.02481 15.3505 4.23281 14.9865 4.32641 14.5913H7.38401V17.0665H9.85922V18.5537H7.38401V24.5025H9.85922V25.9897H7.38401V28.4649H4.33681C4.09761 27.4769 3.21361 26.7801 2.1944 26.7801C0.988002 26.7905 0 27.7785 0 28.9849C0 30.2017 0.988002 31.1793 2.1944 31.1793C3.21361 31.1793 4.09761 30.4721 4.33681 29.4945H7.38401V31.9697H9.85922V34.8817H26.8217V31.9697H29.2657V26.0001H26.8217V24.5129H29.2969V22.0481H32.3441C32.4377 22.4537 32.6457 22.8073 32.9265 23.0881C33.3217 23.4833 33.8729 23.7329 34.4761 23.7329C35.0793 23.7329 35.6305 23.4833 36.0257 23.0881C36.4209 22.6929 36.6705 22.1417 36.6705 21.5385C36.6809 20.3217 35.6929 19.3337 34.4865 19.3337Z" fill="#252A80"/>
<path d="M33.6546 5.79291C33.8626 5.58491 34.1642 5.44971 34.4866 5.44971C34.809 5.44971 35.1106 5.58491 35.3186 5.79291C35.5266 6.00091 35.6618 6.30251 35.6618 6.62491C35.6618 6.94731 35.5266 7.24891 35.3186 7.45691C35.1106 7.66491 34.809 7.80011 34.4866 7.80011C34.1642 7.80011 33.8626 7.66491 33.6546 7.45691C33.4466 7.24891 33.3114 6.94731 33.3114 6.62491C33.3114 6.30251 33.4466 6.00091 33.6546 5.79291Z" fill="#00D0C9"/>
<path d="M3.02649 14.9136C2.80809 15.1216 2.51689 15.2568 2.19449 15.2568C1.87209 15.2568 1.57049 15.1216 1.36249 14.9136C1.15449 14.7056 1.01929 14.404 1.01929 14.0816C1.01929 13.4264 1.53929 12.9064 2.19449 12.9064C2.84969 12.9064 3.36969 13.4264 3.36969 14.0816C3.36969 14.404 3.24489 14.6952 3.02649 14.9136Z" fill="#252A80"/>
<path d="M3.02649 29.8169C2.80809 30.0249 2.51689 30.1601 2.19449 30.1601C1.87209 30.1601 1.57049 30.0249 1.36249 29.8169C1.15449 29.6089 1.01929 29.3073 1.01929 28.9849C1.01929 28.6625 1.15449 28.3609 1.36249 28.1529C1.57049 27.9449 1.87209 27.8097 2.19449 27.8097C2.51689 27.8097 2.81849 27.9449 3.02649 28.1529C3.23449 28.3609 3.36969 28.6625 3.36969 28.9849C3.36969 29.3177 3.24489 29.6089 3.02649 29.8169Z" fill="#252A80"/>
<path d="M28.2775 4.66968H24.3567V8.58009H28.2775V4.66968Z" fill="white"/>
<path d="M12.3341 12.116H8.41333V16.0368H12.3341V12.116Z" fill="white"/>
<path d="M12.3341 19.5728H8.41333V23.4937H12.3341V19.5728Z" fill="#252A80"/>
<path d="M12.3341 27.0297H8.41333V30.9505H12.3341V27.0297Z" fill="white"/>
<path d="M25.8443 33.8945H25.8027H10.8787V32.0121H13.3539V26.0424H10.8787V24.5552H13.3539V18.5856H10.8787V17.0984H13.3539V11.1392H10.8787V9.64161H13.3539V3.672H10.8787V1.8312H25.8027V3.672H23.3379V9.64161H25.8131V11.1288H23.3483V17.088H25.8235V18.5752H23.3587V24.5448H25.8339V26.032H23.3691V32.0017H25.8443V33.8945Z" fill="#00D0C9"/>
<path d="M28.2775 19.5728H24.3567V23.4937H28.2775V19.5728Z" fill="white"/>
<path d="M35.3186 22.3704C35.1106 22.5784 34.809 22.7136 34.4866 22.7136C34.1642 22.7136 33.8626 22.5784 33.6546 22.3704C33.4466 22.1624 33.3114 21.8608 33.3114 21.5384C33.3114 21.216 33.4466 20.9144 33.6546 20.7064C33.8626 20.4984 34.1642 20.3632 34.4866 20.3632C34.809 20.3632 35.1106 20.4984 35.3186 20.7064C35.5266 20.9144 35.6618 21.216 35.6618 21.5384C35.6618 21.8608 35.5266 22.152 35.3186 22.3704Z" fill="#00D0C9"/>
<path d="M52.0936 19.032H49.764V34.6217H55.8897V32.5417H52.0936V19.032Z" fill="#252A80"/>
<path d="M66.3624 9.94242H70.1377C71.0841 9.94242 71.5624 9.45362 71.5624 8.48642V1.4352C71.5624 0.478401 71.0841 0 70.1377 0H64.0328V15.5896H66.3624V9.94242V9.94242ZM66.3624 1.9968H69.212V7.93522H66.3624V1.9968Z" fill="#10BBB7"/>
<path d="M59.6024 19.032H57.2728V34.6217H63.3984V32.5417H59.6024V19.032Z" fill="#252A80"/>
</svg>
