<svg width="178" height="33" viewBox="0 0 178 33" fill="none" xmlns="http://www.w3.org/2000/svg">
<path d="M91.9786 3.76076L78.2 27.3417H73.2146L59.436 3.76076H64.4552L70.2831 13.8665L75.7066 23.5356L81.1301 13.8665L86.9579 3.76076H91.9771H91.9786Z" fill="black"/>
<path d="M149.23 3.76073H167.926C172.979 3.76073 177.023 5.68138 177.023 11.3408C177.023 17.0001 172.912 18.786 167.96 18.786H167.086L178 27.3432H171.262L160.954 18.9208H153.577V27.3432H149.231V3.76218L149.23 3.76073ZM168.028 14.8436C170.656 14.8436 172.575 13.9675 172.575 11.3393C172.575 8.71104 170.688 7.80272 168.061 7.80272H153.575V14.8436H168.028V14.8436Z" fill="black"/>
<path d="M91.7968 17.6389V16.628C91.7968 9.15054 94.425 6.92517 104.227 6.92517C114.03 6.92517 116.456 9.14907 116.49 16.628C116.523 17.3019 116.49 17.9084 116.49 18.4139H96.2431C96.4453 22.5232 97.9279 23.6689 104.463 23.6689C111.336 23.6689 112.212 22.5906 112.212 20.3008L116.49 20.4356C116.49 25.3874 114.503 27.3417 104.43 27.3417C94.3561 27.3417 91.7968 25.1178 91.7968 17.6389ZM96.2431 15.2802H111.942C111.841 11.4726 110.594 10.2947 104.261 10.2947C97.9279 10.2947 96.5127 11.3393 96.2431 15.2802Z" fill="black"/>
<path d="M119.657 17.6389V16.628C119.657 9.15054 122.285 6.92517 132.088 6.92517C141.89 6.92517 144.316 9.14907 144.35 16.628C144.384 17.3019 144.35 17.9084 144.35 18.4139H124.103C124.306 22.5232 125.788 23.6689 132.324 23.6689C139.196 23.6689 140.072 22.5906 140.072 20.3008L144.35 20.4356C144.35 25.3874 142.363 27.3417 132.29 27.3417C122.216 27.3417 119.657 25.1178 119.657 17.6389ZM124.103 15.2802H139.803C139.702 11.4726 138.455 10.2947 132.122 10.2947C125.788 10.2947 124.373 11.3393 124.103 15.2802Z" fill="black"/>
<path d="M23.581 32.5428L0 18.7642V13.7788L23.581 0.000244141V5.01941L13.4753 10.8473L3.80612 16.2708L13.4753 21.6943L23.581 27.5221V32.5413V32.5428Z" fill="black"/>
<path d="M29.8997 3.05176e-05L53.4806 13.7786V18.764L29.8997 32.5426V27.5234L40.0054 21.6955L49.6745 16.272L40.0054 10.8485L29.8997 5.02066V0.00149697V3.05176e-05Z" fill="black"/>
<path d="M21.6472 22.3181L36.7384 12.9977L31.8848 10.2229L16.7408 19.5112L21.6472 22.3181Z" fill="#10CFC9"/>
</svg>
